HIERARCHY
ROOT Hips
{
	OFFSET 0.00000 0.00000 0.00000
	CHANNELS 6 Xposition Yposition Zposition Zrotation Yrotation Xrotation 
	JOINT LHipJoint
	{
		OFFSET 0 0 0
		CHANNELS 3 Zrotation Yrotation Xrotation
		JOINT LeftHip
		{
			OFFSET 1.38691 -1.89057 0.78360
			CHANNELS 3 Zrotation Yrotation Xrotation
			JOINT LeftKnee
			{
				OFFSET 2.59731 -7.13606 0.00000
				CHANNELS 3 Zrotation Yrotation Xrotation
				JOINT LeftAnkle
				{
					OFFSET 2.70078 -7.42033 0.00000
					CHANNELS 3 Zrotation Yrotation Xrotation
					JOINT LeftToe
					{
						OFFSET 0.16751 -0.46024 2.68862
						CHANNELS 3 Zrotation Yrotation Xrotation
						End Site
						{
							OFFSET 0.00000 -0.00000 1.37057
						}
					}
				}
			}
		}
	}
	JOINT RHipJoint
	{
		OFFSET 0 0 0
		CHANNELS 3 Zrotation Yrotation Xrotation
		JOINT RightHip
		{
			OFFSET -1.38190 -1.89056 0.78359
			CHANNELS 3 Zrotation Yrotation Xrotation
			JOINT RightKnee
			{
				OFFSET -2.57785 -7.08258 0.00000
				CHANNELS 3 Zrotation Yrotation Xrotation
				JOINT RightAnkle
				{
					OFFSET -2.77908 -7.63547 0.00000
					CHANNELS 3 Zrotation Yrotation Xrotation
					JOINT RightToe
					{
						OFFSET -0.17921 -0.49237 2.62360
						CHANNELS 3 Zrotation Yrotation Xrotation
						End Site
						{
							OFFSET -0.00000 -0.00000 1.34085
						}
					}
				}
			}
		}
	}
	JOINT lowerback
	{
		OFFSET 0 0 0
		CHANNELS 3 Zrotation Yrotation Xrotation
		JOINT Chest
		{
			OFFSET -0.10749 2.04110 -0.22549
			CHANNELS 3 Zrotation Yrotation Xrotation
			JOINT Chest2
			{
				OFFSET 0.01213 2.05840 0.00691
				CHANNELS 3 Zrotation Yrotation Xrotation
				JOINT lowerneck
				{
					OFFSET 0 0 0
					CHANNELS 3 Zrotation Yrotation Xrotation
					JOINT Neck
					{
						OFFSET 0.06585 1.81215 0.35449
						CHANNELS 3 Zrotation Yrotation Xrotation
						JOINT Head
						{
							OFFSET -0.04315 1.87555 -0.27307
							CHANNELS 3 Zrotation Yrotation Xrotation
							End Site
							{
								OFFSET -0.01775 1.89740 -0.13294
							}
						}
					}
				}
				JOINT LeftCollar
				{
					OFFSET 0 0 0
					CHANNELS 3 Zrotation Yrotation Xrotation
					JOINT LeftShoulder
					{
						OFFSET 2.98012 1.63606 0.28888
CHANNELS 3 Zrotation Xrotation Yrotation
						JOINT LeftElbow
						{
OFFSET 0 -5.598640 -0.000000
CHANNELS 3 Zrotation Xrotation Yrotation
							JOINT LeftWrist
							{
OFFSET 0 -3.595420 -0.000000
CHANNELS 3 Zrotation Xrotation Yrotation
								JOINT lhand
								{
									OFFSET 0 0 0
CHANNELS 3 Zrotation Xrotation Yrotation
									JOINT LFingers
									{
OFFSET 0 -0.572010 -0.000000
CHANNELS 3 Zrotation Xrotation Yrotation
										End Site
										{
OFFSET 0 -0.461170 -0.000000
										}
									}
								}
								JOINT LThumb
								{
OFFSET 0 0.000000 0.000000
CHANNELS 3 Zrotation Xrotation Yrotation
									End Site
									{
OFFSET 0 -0.468210 0.468210
									}
								}
							}
						}
					}
				}
				JOINT RightCollar
				{
					OFFSET 0 0 0
					CHANNELS 3 Zrotation Yrotation Xrotation
					JOINT RightShoulder
					{
						OFFSET -3.08694 1.53706 0.36335
CHANNELS 3 Zrotation Xrotation Yrotation
						JOINT RightElbow
						{
OFFSET 0 -5.809400 -0.000000
CHANNELS 3 Zrotation Xrotation Yrotation
							JOINT RightWrist
							{
OFFSET 0 -3.669530 -0.000000
CHANNELS 3 Zrotation Xrotation Yrotation
								JOINT rhand
								{
									OFFSET 0 0 0
CHANNELS 3 Zrotation Xrotation Yrotation
									JOINT RFingers
									{
OFFSET 0 -0.578430 -0.000000
CHANNELS 3 Zrotation Xrotation Yrotation
										End Site
										{
OFFSET 0 -0.466350 -0.000000
										}
									}
								}
								JOINT RThumb
								{
OFFSET 0 0.000000 0.000000
CHANNELS 3 Zrotation Xrotation Yrotation
									End Site
									{
OFFSET 0 -0.473470 0.473470
									}
								}
							}
						}
					}
				}
			}
		}
	}
}
MOTION
Frames: 10
Frame Time: 0.008333333333333333
22.975500 19.118900 -23.785000 -4.347300 41.816200 -3.244700 0.000000 0.000000 0.000000 -15.428100 4.827800 -5.267300 5.358100 13.776100 42.347700 6.944800 -10.596600 -48.827800 0.192000 -2.822100 -7.783900 0.000000 0.000000 0.000000 22.262600 6.601200 -20.704000 -5.236100 -13.644800 41.833000 -2.238800 11.464000 -26.954300 -0.989600 6.331500 -17.749400 -5.381500 -0.161300 13.394400 -0.030200 -1.030800 0.239300 3.209700 -0.308500 -7.183300 -1.038400 -5.282100 -18.183900 3.306300 -8.572800 37.328000 0.028300 -3.041300 16.781400 -0.000000 0.000000 0.000000 11.517800 14.329900 -42.413700 48.696900 -52.456200 25.137200 23.449000 -18.307800 -3.855800 0.000000 0.000000 0.000000 -7.125000 0.000000 0.000000 -2.618100 34.172700 -0.696100 -0.000000 0.000000 0.000000 -3.927400 2.668900 50.603600 -34.310000 -44.313100 -14.329100 -41.381600 -14.043300 -5.945100 0.000000 0.000000 0.000000 7.125000 0.000000 -0.000000 -10.670100 22.122100 -5.968000
22.981597 19.123570 -23.650744 -4.347603 41.377500 -3.266968 0.000000 0.000000 0.000000 -15.300848 4.961364 -5.486520 5.518645 13.942483 43.012712 6.884958 -10.784299 -48.585187 0.184822 -2.768441 -7.634770 0.000000 0.000000 0.000000 22.394262 6.740515 -20.442319 -5.197012 -13.602080 41.666617 -2.191454 11.530155 -26.671605 -1.008625 6.389916 -17.920236 -5.339040 -0.115943 13.422159 -0.024579 -0.965985 0.228058 3.179909 -0.277238 -7.217632 -1.017905 -5.215815 -18.219096 3.261634 -8.462325 37.265347 0.025489 -3.002904 16.748582 0.000000 0.000000 0.000000 11.475426 14.606628 -41.965444 48.304422 -52.286618 24.826832 23.398497 -18.265037 -3.671906 0.000000 0.000000 0.000000 -7.125000 0.000000 0.000000 -2.649145 33.970905 -0.717546 0.000000 0.000000 0.000000 -3.902538 2.678499 50.731933 -34.288770 -44.297534 -14.314312 -41.478368 -14.027734 -5.833155 0.000000 0.000000 0.000000 7.125000 0.000000 0.000000 -10.757529 22.257091 -5.984560
22.987693 19.128240 -23.516487 -4.347905 40.938800 -3.289236 0.000000 0.000000 0.000000 -15.173597 5.094929 -5.705741 5.679191 14.108865 43.677723 6.825115 -10.971999 -48.342575 0.177645 -2.714781 -7.485639 0.000000 0.000000 0.000000 22.525924 6.879830 -20.180638 -5.157924 -13.559360 41.500235 -2.144107 11.596311 -26.388910 -1.027650 6.448331 -18.091072 -5.296579 -0.070585 13.449919 -0.018958 -0.901170 0.216816 3.150117 -0.245977 -7.251963 -0.997410 -5.149530 -18.254293 3.216969 -8.351850 37.202694 0.022679 -2.964508 16.715764 0.000000 0.000000 0.000000 11.433052 14.883356 -41.517188 47.911944 -52.117035 24.516465 23.347994 -18.222274 -3.488011 0.000000 0.000000 0.000000 -7.125000 0.000000 0.000000 -2.680191 33.769110 -0.738993 0.000000 0.000000 0.000000 -3.877675 2.688098 50.860265 -34.267540 -44.281968 -14.299525 -41.575137 -14.012168 -5.721210 0.000000 0.000000 0.000000 7.125000 0.000000 0.000000 -10.844957 22.392083 -6.001121
22.992601 19.133741 -23.382083 -4.361996 40.508717 -3.302262 0.000000 0.000000 0.000000 -15.015559 5.203294 -5.977232 5.858012 14.286540 44.403802 6.743194 -11.370742 -48.003474 0.151657 -2.488382 -6.858405 0.000000 0.000000 0.000000 22.677139 7.042770 -19.918779 -5.114409 -13.511291 41.314150 -2.098425 11.634325 -26.111178 -1.045070 6.501011 -18.245357 -5.266243 -0.028556 13.465048 -0.005670 -0.841585 0.198472 3.136135 -0.216647 -7.285968 -0.958461 -5.081046 -18.257128 3.156762 -8.237007 37.121171 0.011756 -2.925250 16.663125 0.000000 0.000000 0.000000 11.375553 15.176130 -41.070359 47.566269 -51.964510 24.243956 23.309259 -18.149794 -3.352941 0.000000 0.000000 0.000000 -7.125000 0.000000 0.000000 -2.704402 33.620982 -0.755358 0.000000 0.000000 0.000000 -3.855666 2.715467 51.000068 -34.254303 -44.272256 -14.290294 -41.646081 -14.054757 -5.631166 0.000000 0.000000 0.000000 7.125000 0.000000 0.000000 -10.910574 22.501696 -6.010906
22.996968 19.139622 -23.247610 -4.382362 40.082556 -3.311083 0.000000 0.000000 0.000000 -14.843512 5.300192 -6.272509 6.045149 14.469353 45.157669 6.651225 -11.865523 -47.620465 0.117109 -2.183376 -6.013607 0.000000 0.000000 0.000000 22.837252 7.216460 -19.656839 -5.068878 -13.460789 41.119100 -2.053500 11.659533 -25.835704 -1.061761 6.551082 -18.392109 -5.241424 0.011959 13.474431 0.011107 -0.784381 0.176895 3.129346 -0.188196 -7.319824 -0.911114 -5.011561 -18.245237 3.089482 -8.120176 37.031062 -0.002859 -2.885600 16.601466 0.000000 0.000000 0.000000 11.311170 15.476207 -40.624178 47.241892 -51.819747 23.988674 23.275879 -18.063793 -3.240088 0.000000 0.000000 0.000000 -7.125000 0.000000 0.000000 -2.725502 33.497276 -0.769410 0.000000 0.000000 0.000000 -3.834955 2.750923 51.145091 -34.244704 -44.265208 -14.283592 -41.705275 -14.123809 -5.551087 0.000000 0.000000 0.000000 7.125000 0.000000 0.000000 -10.966266 22.599762 -6.017608
23.001562 19.146684 -23.113203 -4.388574 39.664508 -3.303499 0.000000 0.000000 0.000000 -14.677684 5.399049 -6.582960 6.233646 14.649268 45.909156 6.551273 -12.297473 -47.209863 0.086917 -1.885366 -5.189374 0.000000 0.000000 0.000000 22.984086 7.376499 -19.392664 -5.019413 -13.405460 40.906221 -2.008704 11.658054 -25.556570 -1.084442 6.618107 -18.588981 -5.228442 0.048182 13.478357 0.031737 -0.734139 0.154510 3.134606 -0.162708 -7.350684 -0.887880 -4.937624 -18.224618 3.036388 -7.992738 36.932175 -0.004842 -2.843295 16.535452 0.000000 0.000000 0.000000 11.238335 15.771766 -40.184410 46.926875 -51.677737 23.741166 23.233268 -18.012235 -3.127186 0.000000 0.000000 0.000000 -7.125000 0.000000 0.000000 -2.754133 33.373295 -0.785795 0.000000 0.000000 0.000000 -3.829741 2.788533 51.292089 -34.239186 -44.261156 -14.279740 -41.751563 -14.205007 -5.485163 0.000000 0.000000 0.000000 7.125000 0.000000 0.000000 -11.010363 22.680808 -6.021978
23.006535 19.155721 -22.978903 -4.371149 39.260010 -3.268519 0.000000 0.000000 0.000000 -14.522241 5.501179 -6.918752 6.424416 14.824342 46.656667 6.437987 -12.624487 -46.753175 0.064001 -1.599039 -4.399489 0.000000 0.000000 0.000000 23.108744 7.513738 -19.124757 -4.963376 -13.342072 40.663565 -1.964125 11.612005 -25.271325 -1.117131 6.713448 -18.869557 -5.235231 0.077239 13.473168 0.058805 -0.695527 0.130772 3.159987 -0.142170 -7.376541 -0.904916 -4.856248 -18.189422 3.006986 -7.847585 36.818631 0.014269 -2.796554 16.462162 0.000000 0.000000 0.000000 11.151381 16.059779 -39.755352 46.627490 -51.540324 23.506639 23.175242 -18.018202 -3.014203 0.000000 0.000000 0.000000 -7.125000 0.000000 0.000000 -2.795339 33.248854 -0.806074 0.000000 0.000000 0.000000 -3.850409 2.829739 51.442387 -34.240483 -44.262108 -14.280648 -41.776295 -14.306488 -5.442875 0.000000 0.000000 0.000000 7.125000 0.000000 0.000000 -11.035095 22.733429 -6.022454
23.011494 19.164878 -22.844681 -4.354634 38.856382 -3.235150 0.000000 0.000000 0.000000 -14.365526 5.599140 -7.254702 6.616296 14.999696 47.407189 6.324082 -12.930023 -46.294361 0.041819 -1.317365 -3.622527 0.000000 0.000000 0.000000 23.233689 7.654905 -18.853035 -4.906513 -13.277642 40.417114 -1.922121 11.557937 -25.001609 -1.148283 6.804278 -19.136868 -5.239038 0.108552 13.471049 0.084657 -0.653675 0.107960 3.181775 -0.120170 -7.403468 -0.920069 -4.778060 -18.157637 2.977327 -7.707978 36.705270 0.031773 -2.751762 16.389901 0.000000 0.000000 0.000000 11.071464 16.348097 -39.338974 46.342695 -51.409578 23.283550 23.118946 -18.027000 -2.910038 0.000000 0.000000 0.000000 -7.125000 0.000000 0.000000 -2.835608 33.134039 -0.825434 0.000000 0.000000 0.000000 -3.868475 2.870545 51.584602 -34.241462 -44.262826 -14.281334 -41.807441 -14.403287 -5.396549 0.000000 0.000000 0.000000 7.125000 0.000000 0.000000 -11.065109 22.790682 -6.024663
23.016250 19.175861 -22.711635 -4.351954 38.465980 -3.226243 0.000000 0.000000 0.000000 -14.189501 5.633774 -7.593045 6.825053 15.179310 48.203430 6.200765 -12.909355 -45.803256 0.030793 -1.106360 -3.041831 0.000000 0.000000 0.000000 23.363016 7.855705 -18.523383 -4.837115 -13.197391 40.113016 -1.919224 11.382085 -24.967753 -1.156110 6.826589 -19.202721 -5.197572 0.174145 13.515541 0.092051 -0.562614 0.099226 3.149000 -0.075980 -7.446664 -0.906622 -4.748268 -18.177656 2.943774 -7.652589 36.594709 0.024854 -2.736586 16.333258 0.000000 0.000000 0.000000 11.098402 16.641039 -39.115171 46.279480 -51.380089 23.234171 23.088939 -18.078800 -2.939786 0.000000 0.000000 0.000000 -7.125000 0.000000 0.000000 -2.861638 33.165431 -0.830839 0.000000 0.000000 0.000000 -3.847029 2.905266 51.604059 -34.237614 -44.260016 -14.278654 -41.935990 -14.428970 -5.288884 0.000000 0.000000 0.000000 7.125000 0.000000 0.000000 -11.175324 22.918280 -6.053201
23.021006 19.186844 -22.578590 -4.349273 38.075577 -3.217335 0.000000 0.000000 0.000000 -14.013476 5.668408 -7.931388 7.033809 15.358923 48.999671 6.077448 -12.888687 -45.312150 0.019767 -0.895355 -2.461135 0.000000 0.000000 0.000000 23.492343 8.056506 -18.193731 -4.767717 -13.117140 39.808918 -1.916327 11.206233 -24.933897 -1.163936 6.848901 -19.268573 -5.156107 0.239738 13.560034 0.099444 -0.471553 0.090492 3.116225 -0.031790 -7.489859 -0.893175 -4.718477 -18.197676 2.910221 -7.597201 36.484147 0.017936 -2.721409 16.276615 0.000000 0.000000 0.000000 11.125340 16.933982 -38.891367 46.216265 -51.350601 23.184792 23.058931 -18.130600 -2.969534 0.000000 0.000000 0.000000 -7.125000 0.000000 0.000000 -2.887667 33.196822 -0.836244 0.000000 0.000000 0.000000 -3.825582 2.939986 51.623517 -34.233766 -44.257205 -14.275973 -42.064539 -14.454654 -5.181220 0.000000 0.000000 0.000000 7.125000 0.000000 0.000000 -11.285540 23.045877 -6.081738
